<?xml version="1.0"?>
<svg xmlns:rdf="http://www.w3.org/1999/02/22-rdf-syntax-ns#" xmlns="http://www.w3.org/2000/svg" xmlns:cc="http://web.resource.org/cc/" xmlns:dc="http://purl.org/dc/elements/1.1/" xmlns:svg="http://www.w3.org/2000/svg" id="svg4045" viewBox="0 0 724.87 329.04" version="1.0">
  <g id="layer1" transform="translate(33.861 -472.03)">
    <g id="g3862" transform="matrix(5.1044 0 0 5.1044 -3863.1 1032.4)">
      <path id="path4835" transform="matrix(.40508 -.021230 .0087847 .16762 367.92 -193.51)" fill="#162d50" d="m1141.4 997.36a12.143 12.143 0 1 1 -24.3 0 12.143 12.143 0 1 1 24.3 0z"/>
      <path id="rect4050" d="m750.19-95.627l48.3-1.888 35.81 47.845-65.11 4.348-19-50.305z" fill="#162d50"/>
      <path id="path4055" d="m797.87-97.763l43.37-3.527 50.41 43.194-57.48 8.41-36.3-48.077z" fill="#162d50"/>
      <path id="path4057" stroke="#003380" fill="#afdde9" d="m750.87-99.568s14.95-1.532 21.94-1.322c6.99 0.22 25.68 2.424 25.68 2.424l35.81 47.845s-22.53-1.019-32.05-1.019c-9.51 0-32.04 2.038-32.04 2.038l-19.34-49.966z"/>
      <path id="path4059" stroke="#214478" fill="#afdde9" d="m797.92-98.652s17.58-5.438 24.06-4.848c6.51 0.58 19.99 0.92 19.99 0.92l49.73 40.13s-20.37 1.387-29.93 1.691c-9.6 0.305-27.55 10.183-27.55 10.183l-36.3-48.076z"/>
      <path id="path4061" stroke="#000" stroke-width="1.9023" fill="#f4eed7" d="m751.89-104.19s8.54 2.33 13.79 2.49c5.24 0.16 14.68-3.45 19.7-3.3 4.95 0.16 13.11 6.058 13.11 6.058l35.81 47.845s-15.14-4.755-21.97-5.435c-6.82-0.679-17.21 4.077-24.34 4.077-7.14 0-17.1-2.446-17.1-2.446l-19-49.289z"/>
      <path id="path4063" stroke="#000" stroke-width="1.9023" fill="#f4eed7" d="m797.92-99.128s6.61-5.122 11.49-6.212 14.88 1.29 19.57 0.77c4.69-0.53 12.65-4.26 12.65-4.26l42.93 35.034s-6.62 7.748-15.32 11.202c-8.99 3.572-17.18 0.745-23.05 3.083-5.86 2.338-11.97 8.46-11.97 8.46l-36.3-48.077z"/>
    </g>
  </g>
  <metadata>
    <rdf:RDF>
      <cc:Work>
        <dc:format>image/svg+xml</dc:format>
        <dc:type rdf:resource="http://purl.org/dc/dcmitype/StillImage"/>
        <cc:license rdf:resource="http://creativecommons.org/licenses/publicdomain/"/>
        <dc:publisher>
          <cc:Agent rdf:about="http://openclipart.org/">
            <dc:title>Openclipart</dc:title>
          </cc:Agent>
        </dc:publisher>
        <dc:title>Book Open</dc:title>
        <dc:date>2008-11-21T15:19:30</dc:date>
        <dc:description>book, book, clip art, clipart, image, media, open, open, png, public domain, svg, </dc:description>
        <dc:source>http://openclipart.org/detail/20319/book-open-by-sheikh_tuhin-20319</dc:source>
        <dc:creator>
          <cc:Agent>
            <dc:title>sheikh_tuhin</dc:title>
          </cc:Agent>
        </dc:creator>
        <dc:subject>
          <rdf:Bag>
            <rdf:li>book</rdf:li>
            <rdf:li>clip art</rdf:li>
            <rdf:li>clipart</rdf:li>
            <rdf:li>image</rdf:li>
            <rdf:li>media</rdf:li>
            <rdf:li>open</rdf:li>
            <rdf:li>png</rdf:li>
            <rdf:li>public domain</rdf:li>
            <rdf:li>svg</rdf:li>
          </rdf:Bag>
        </dc:subject>
      </cc:Work>
      <cc:License rdf:about="http://creativecommons.org/licenses/publicdomain/">
        <cc:permits rdf:resource="http://creativecommons.org/ns#Reproduction"/>
        <cc:permits rdf:resource="http://creativecommons.org/ns#Distribution"/>
        <cc:permits rdf:resource="http://creativecommons.org/ns#DerivativeWorks"/>
      </cc:License>
    </rdf:RDF>
  </metadata>
</svg>
